<svg width="119" height="20" viewBox="0 0 119 20" fill="none" xmlns="http://www.w3.org/2000/svg">
<path d="M102.095 16V4.50063H104.325L104.544 6.03096H104.697C104.945 5.68117 105.229 5.3751 105.55 5.11276C105.87 4.83584 106.235 4.62451 106.643 4.47876C107.065 4.31844 107.525 4.23828 108.02 4.23828C108.691 4.23828 109.288 4.37674 109.813 4.65366C110.337 4.93058 110.746 5.38968 111.037 6.03096H111.19C111.438 5.68117 111.729 5.3751 112.065 5.11276C112.4 4.83584 112.786 4.62451 113.223 4.47876C113.66 4.31844 114.134 4.23828 114.644 4.23828C115.329 4.23828 115.934 4.36217 116.459 4.60993C116.983 4.8577 117.399 5.26579 117.705 5.8342C118.011 6.40261 118.164 7.16049 118.164 8.10785V16H115.497V8.65439C115.497 8.26088 115.453 7.93295 115.366 7.67061C115.278 7.39369 115.154 7.18236 114.994 7.03661C114.848 6.87629 114.659 6.75969 114.426 6.68682C114.207 6.61395 113.967 6.57751 113.704 6.57751C113.282 6.57751 112.903 6.69411 112.567 6.9273C112.232 7.1605 111.963 7.48114 111.758 7.88923C111.569 8.29732 111.474 8.77099 111.474 9.31025V16H108.807V8.65439C108.807 8.26088 108.763 7.93295 108.676 7.67061C108.588 7.39369 108.465 7.18236 108.304 7.03661C108.159 6.87629 107.969 6.75969 107.736 6.68682C107.517 6.61395 107.277 6.57751 107.014 6.57751C106.592 6.57751 106.206 6.69411 105.856 6.9273C105.521 7.1605 105.251 7.48114 105.047 7.88923C104.857 8.29732 104.763 8.77099 104.763 9.31025V16H102.095Z" fill="#131313"/>
<path d="M94.858 16V4.50063H97.0879L97.3065 6.31517H97.4595C97.6053 5.9508 97.7802 5.61558 97.9842 5.30952C98.2028 4.98888 98.4798 4.73382 98.815 4.54435C99.1502 4.3403 99.5583 4.23828 100.039 4.23828C100.272 4.23828 100.484 4.26014 100.673 4.30387C100.877 4.34759 101.03 4.39132 101.132 4.43504V6.94916H100.323C99.8716 6.94916 99.4708 7.01475 99.121 7.14592C98.7713 7.26252 98.4725 7.45199 98.2247 7.71433C97.9915 7.97667 97.8166 8.3046 97.7 8.69812C97.5834 9.09163 97.5251 9.55073 97.5251 10.0754V16H94.858Z" fill="#131313"/>
<path d="M86.3447 16.2624C86.024 16.2624 85.6524 16.2186 85.2297 16.1312C84.8216 16.0583 84.4208 15.9126 84.0273 15.6939C83.6483 15.4753 83.335 15.1547 83.0872 14.732C82.8395 14.2948 82.7156 13.7264 82.7156 13.0268C82.7156 12.2398 82.8905 11.5912 83.2403 11.0811C83.59 10.5564 84.0783 10.1483 84.705 9.8568C85.3463 9.55073 86.1042 9.3394 86.9787 9.22281C87.8677 9.09163 88.8369 9.02605 89.8863 9.02605V8.08598C89.8863 7.75077 89.8353 7.45199 89.7333 7.18964C89.6312 6.9273 89.4418 6.72326 89.1648 6.57751C88.9025 6.41719 88.5017 6.33703 87.9624 6.33703C87.4232 6.33703 87.0005 6.40261 86.6945 6.53379C86.3884 6.66496 86.177 6.82528 86.0604 7.01475C85.9439 7.20422 85.8856 7.40098 85.8856 7.60502V7.91109H83.3058C83.2913 7.83821 83.284 7.76534 83.284 7.69247C83.284 7.6196 83.284 7.53215 83.284 7.43013C83.284 6.77427 83.4807 6.20586 83.8743 5.72489C84.2678 5.24393 84.8143 4.87957 85.5139 4.6318C86.2135 4.36945 87.0224 4.23828 87.9406 4.23828C88.99 4.23828 89.8499 4.38403 90.5203 4.67552C91.2053 4.96701 91.7154 5.38239 92.0506 5.92165C92.3858 6.46091 92.5535 7.11677 92.5535 7.88923V13.311C92.5535 13.5879 92.6336 13.7847 92.7939 13.9013C92.9543 14.0179 93.1291 14.0762 93.3186 14.0762H94.0182V15.9126C93.8724 15.9709 93.6611 16.0364 93.3842 16.1093C93.1073 16.1968 92.7648 16.2405 92.3567 16.2405C91.9777 16.2405 91.6352 16.1749 91.3292 16.0437C91.0377 15.9271 90.7899 15.7522 90.5859 15.519C90.3818 15.2859 90.2361 15.0089 90.1486 14.6883H90.0175C89.7697 14.9944 89.4709 15.2713 89.1211 15.519C88.7859 15.7522 88.3851 15.9344 87.9187 16.0656C87.4669 16.1968 86.9422 16.2624 86.3447 16.2624ZM87.1535 14.0762C87.5908 14.0762 87.977 14.0106 88.3122 13.8794C88.662 13.7482 88.9462 13.566 89.1648 13.3329C89.398 13.0997 89.5729 12.8155 89.6895 12.4802C89.8207 12.145 89.8863 11.7807 89.8863 11.3871V10.8625C89.0847 10.8625 88.3414 10.9135 87.6564 11.0155C86.9859 11.1175 86.4467 11.307 86.0386 11.5839C85.6451 11.8608 85.4483 12.2543 85.4483 12.7644C85.4483 13.0268 85.5066 13.26 85.6232 13.464C85.7544 13.6535 85.9439 13.8065 86.1916 13.9231C86.454 14.0251 86.7746 14.0762 87.1535 14.0762Z" fill="#131313"/>
<path d="M71.6566 16V1.00269H82.4346V3.42936H74.4987V7.45196H81.6476V9.87864H74.4987V16H71.6566Z" fill="#131313"/>
<path d="M64.7855 16.2624C63.5612 16.2624 62.541 16.051 61.7248 15.6284C60.9087 15.1911 60.2965 14.528 59.8884 13.6389C59.4804 12.7499 59.2763 11.6203 59.2763 10.2503C59.2763 8.86573 59.4804 7.73619 59.8884 6.86171C60.2965 5.97266 60.9087 5.3168 61.7248 4.89414C62.541 4.4569 63.5612 4.23828 64.7855 4.23828C65.8932 4.23828 66.8187 4.44961 67.562 4.87228C68.3199 5.28037 68.8883 5.91436 69.2672 6.77427C69.6462 7.63417 69.8356 8.74913 69.8356 10.1191V10.9062H62.009C62.0382 11.6203 62.1475 12.2252 62.337 12.7207C62.5264 13.2017 62.8179 13.566 63.2115 13.8138C63.6195 14.047 64.1515 14.1636 64.8074 14.1636C65.1426 14.1636 65.456 14.1199 65.7474 14.0324C66.0389 13.945 66.294 13.8138 66.5126 13.6389C66.7312 13.4494 66.8988 13.2163 67.0154 12.9393C67.1466 12.6624 67.2122 12.3418 67.2122 11.9774H69.8356C69.8356 12.7061 69.7045 13.3401 69.4421 13.8794C69.1943 14.4187 68.8373 14.8632 68.3709 15.213C67.9191 15.5628 67.3871 15.8251 66.775 16C66.1628 16.1749 65.4997 16.2624 64.7855 16.2624ZM62.0528 9.02605H67.0592C67.0592 8.54508 67.0009 8.13699 66.8843 7.80178C66.7822 7.46656 66.6292 7.18964 66.4252 6.97102C66.2357 6.75241 66.0025 6.59937 65.7256 6.51192C65.4487 6.4099 65.1353 6.35889 64.7855 6.35889C64.2171 6.35889 63.7361 6.45363 63.3426 6.6431C62.9637 6.83257 62.6722 7.12406 62.4682 7.51757C62.2641 7.91109 62.1256 8.41391 62.0528 9.02605Z" fill="#131313"/>
<path d="M49.5134 19.9789C49.0033 19.9789 48.5223 19.8769 48.0705 19.6728C47.6187 19.4688 47.2543 19.1627 46.9774 18.7546C46.7005 18.3611 46.562 17.8728 46.562 17.2899C46.562 16.6486 46.7442 16.1458 47.1086 15.7814C47.4875 15.4024 47.9029 15.1182 48.3547 14.9288C48.0195 14.7539 47.7426 14.5207 47.524 14.2292C47.3199 13.9377 47.2179 13.5879 47.2179 13.1798C47.2179 12.626 47.4219 12.1887 47.83 11.8681C48.2381 11.5329 48.7045 11.3143 49.2292 11.2122C48.6899 10.877 48.2746 10.4471 47.9831 9.92239C47.7061 9.3977 47.5677 8.80014 47.5677 8.12971C47.5677 7.3281 47.7572 6.64309 48.1361 6.07468C48.5296 5.4917 49.098 5.03988 49.8413 4.71924C50.5846 4.3986 51.481 4.23828 52.5304 4.23828C52.953 4.23828 53.3611 4.26743 53.7546 4.32573C54.1481 4.38403 54.5052 4.47147 54.8259 4.58807C55.336 4.282 55.6858 3.9395 55.8752 3.56056C56.0647 3.16704 56.1667 2.8464 56.1813 2.59863H58.7829C58.7829 3.10875 58.6808 3.56056 58.4768 3.95407C58.2873 4.34759 58.0177 4.67552 57.6679 4.93786C57.3181 5.18563 56.8955 5.36781 56.3999 5.48441C56.7643 5.80505 57.0412 6.19128 57.2307 6.64309C57.4201 7.09491 57.5149 7.59044 57.5149 8.12971C57.5149 8.93131 57.3254 9.62361 56.9465 10.2066C56.5821 10.7896 56.0356 11.2414 55.3068 11.562C54.5927 11.8827 53.7109 12.043 52.6615 12.043H50.8907C50.5846 12.043 50.3442 12.1086 50.1693 12.2398C50.0089 12.3709 49.9288 12.5531 49.9288 12.7863C49.9288 12.9758 50.0017 13.1434 50.1474 13.2891C50.3077 13.4349 50.5263 13.5077 50.8033 13.5077H55.8315C56.6914 13.5077 57.3983 13.7919 57.9521 14.3604C58.5205 14.9142 58.8047 15.6284 58.8047 16.5028C58.8047 17.1587 58.6298 17.749 58.28 18.2736C57.9448 18.7983 57.4712 19.2137 56.859 19.5198C56.2469 19.8258 55.5327 19.9789 54.7165 19.9789H49.5134ZM50.4753 18.055H54.6947C54.9716 18.055 55.2121 18.004 55.4161 17.902C55.6347 17.8145 55.8024 17.6834 55.919 17.5085C56.0501 17.3336 56.1157 17.1368 56.1157 16.9182C56.1157 16.5393 55.9918 16.2551 55.7441 16.0656C55.5109 15.8761 55.2194 15.7814 54.8696 15.7814H50.4753C50.1255 15.7814 49.834 15.8834 49.6009 16.0875C49.3677 16.3061 49.2511 16.583 49.2511 16.9182C49.2511 17.2534 49.3604 17.5231 49.579 17.7271C49.8122 17.9457 50.111 18.055 50.4753 18.055ZM52.5522 10.1629C53.3247 10.1629 53.9004 9.98797 54.2793 9.63818C54.6728 9.27381 54.8696 8.77099 54.8696 8.12971C54.8696 7.48842 54.6728 6.99288 54.2793 6.64309C53.9004 6.2933 53.3247 6.11841 52.5522 6.11841C51.7798 6.11841 51.1968 6.2933 50.8033 6.64309C50.4243 6.99288 50.2348 7.48842 50.2348 8.12971C50.2348 8.55237 50.315 8.91674 50.4753 9.2228C50.6502 9.52887 50.9053 9.76206 51.2405 9.92239C51.5903 10.0827 52.0275 10.1629 52.5522 10.1629Z" fill="#131313"/>
<path d="M35.5276 16V4.50063H37.7575L37.9761 6.03096H38.1292C38.3915 5.68117 38.6976 5.3751 39.0474 5.11276C39.4117 4.83584 39.8198 4.62451 40.2716 4.47876C40.738 4.31844 41.2481 4.23828 41.802 4.23828C42.5307 4.23828 43.172 4.36945 43.7258 4.6318C44.2942 4.89414 44.7388 5.3168 45.0594 5.89979C45.38 6.48277 45.5404 7.26252 45.5404 8.23902V16H42.8513V8.71998C42.8513 8.31189 42.8003 7.97667 42.6983 7.71433C42.6109 7.43741 42.4724 7.21879 42.2829 7.05847C42.108 6.88358 41.8894 6.75969 41.6271 6.68682C41.3647 6.61395 41.0732 6.57751 40.7526 6.57751C40.2716 6.57751 39.8344 6.69411 39.4409 6.9273C39.0619 7.1605 38.7559 7.48114 38.5227 7.88923C38.3041 8.29732 38.1947 8.77099 38.1947 9.31025V16H35.5276Z" fill="#131313"/>
<path d="M27.0142 16.2624C26.6936 16.2624 26.3219 16.2186 25.8993 16.1312C25.4912 16.0583 25.0904 15.9126 24.6968 15.6939C24.3179 15.4753 24.0046 15.1547 23.7568 14.732C23.509 14.2948 23.3851 13.7264 23.3851 13.0268C23.3851 12.2398 23.56 11.5912 23.9098 11.0811C24.2596 10.5564 24.7479 10.1483 25.3746 9.8568C26.0159 9.55073 26.7737 9.3394 27.6482 9.22281C28.5373 9.09163 29.5065 9.02605 30.5558 9.02605V8.08598C30.5558 7.75077 30.5048 7.45199 30.4028 7.18964C30.3008 6.9273 30.1113 6.72326 29.8344 6.57751C29.5721 6.41719 29.1713 6.33703 28.632 6.33703C28.0927 6.33703 27.6701 6.40261 27.364 6.53379C27.0579 6.66496 26.8466 6.82528 26.73 7.01475C26.6134 7.20422 26.5551 7.40098 26.5551 7.60502V7.91109H23.9754C23.9608 7.83821 23.9535 7.76534 23.9535 7.69247C23.9535 7.6196 23.9535 7.53215 23.9535 7.43013C23.9535 6.77427 24.1503 6.20586 24.5438 5.72489C24.9373 5.24393 25.4839 4.87957 26.1835 4.6318C26.883 4.36945 27.6919 4.23828 28.6101 4.23828C29.6595 4.23828 30.5194 4.38403 31.1898 4.67552C31.8749 4.96701 32.385 5.38239 32.7202 5.92165C33.0554 6.46091 33.223 7.11677 33.223 7.88923V13.311C33.223 13.5879 33.3032 13.7847 33.4635 13.9013C33.6238 14.0179 33.7987 14.0762 33.9882 14.0762H34.6878V15.9126C34.542 15.9709 34.3307 16.0364 34.0538 16.1093C33.7768 16.1968 33.4343 16.2405 33.0262 16.2405C32.6473 16.2405 32.3048 16.1749 31.9987 16.0437C31.7072 15.9271 31.4595 15.7522 31.2554 15.519C31.0514 15.2859 30.9056 15.0089 30.8182 14.6883H30.687C30.4393 14.9944 30.1405 15.2713 29.7907 15.519C29.4555 15.7522 29.0547 15.9344 28.5883 16.0656C28.1365 16.1968 27.6118 16.2624 27.0142 16.2624ZM27.8231 14.0762C28.2603 14.0762 28.6466 14.0106 28.9818 13.8794C29.3316 13.7482 29.6158 13.566 29.8344 13.3329C30.0676 13.0997 30.2425 12.8155 30.3591 12.4802C30.4903 12.145 30.5558 11.7807 30.5558 11.3871V10.8625C29.7542 10.8625 29.0109 10.9135 28.3259 11.0155C27.6555 11.1175 27.1162 11.307 26.7081 11.5839C26.3146 11.8608 26.1179 12.2543 26.1179 12.7644C26.1179 13.0268 26.1762 13.26 26.2928 13.464C26.4239 13.6535 26.6134 13.8065 26.8612 13.9231C27.1235 14.0251 27.4442 14.0762 27.8231 14.0762Z" fill="#131313"/>
<path d="M17.0388 16V4.50063H19.2688L19.4874 6.31517H19.6404C19.7862 5.9508 19.9611 5.61558 20.1651 5.30952C20.3837 4.98888 20.6606 4.73382 20.9959 4.54435C21.3311 4.3403 21.7392 4.23828 22.2201 4.23828C22.4533 4.23828 22.6647 4.26014 22.8541 4.30387C23.0582 4.34759 23.2112 4.39132 23.3132 4.43504V6.94916H22.5043C22.0525 6.94916 21.6517 7.01475 21.3019 7.14592C20.9521 7.26252 20.6534 7.45199 20.4056 7.71433C20.1724 7.97667 19.9975 8.3046 19.8809 8.69812C19.7643 9.09163 19.706 9.55073 19.706 10.0754V16H17.0388Z" fill="#131313"/>
<path d="M7.74804 16.2623C6.18856 16.2623 4.8404 15.9854 3.70358 15.4316C2.56676 14.8632 1.69228 14.0033 1.08015 12.8519C0.482587 11.7005 0.183807 10.2503 0.183807 8.50135C0.183807 6.73782 0.482587 5.28764 1.08015 4.15082C1.69228 2.99942 2.56676 2.14681 3.70358 1.59297C4.8404 1.02456 6.18856 0.740356 7.74804 0.740356C9.3221 0.740356 10.6703 1.02456 11.7925 1.59297C12.9293 2.14681 13.7965 2.99942 14.3941 4.15082C15.0062 5.28764 15.3123 6.73782 15.3123 8.50135C15.3123 10.2503 15.0062 11.7005 14.3941 12.8519C13.7965 14.0033 12.9293 14.8632 11.7925 15.4316C10.6703 15.9854 9.3221 16.2623 7.74804 16.2623ZM7.74804 13.8575C8.50592 13.8575 9.16907 13.7482 9.73748 13.5296C10.3205 13.311 10.8087 12.9903 11.2022 12.5677C11.5957 12.1304 11.8945 11.5985 12.0986 10.9717C12.3026 10.3305 12.4046 9.59444 12.4046 8.76369V8.28273C12.4046 7.4374 12.3026 6.69409 12.0986 6.05281C11.8945 5.41153 11.5957 4.87955 11.2022 4.45689C10.8087 4.01965 10.3205 3.69172 9.73748 3.4731C9.16907 3.25448 8.50592 3.14517 7.74804 3.14517C6.99016 3.14517 6.31973 3.25448 5.73674 3.4731C5.16833 3.69172 4.68737 4.01965 4.29385 4.45689C3.90034 4.87955 3.60156 5.41153 3.39751 6.05281C3.20804 6.69409 3.11331 7.4374 3.11331 8.28273V8.76369C3.11331 9.59444 3.20804 10.3305 3.39751 10.9717C3.60156 11.5985 3.90034 12.1304 4.29385 12.5677C4.68737 12.9903 5.16833 13.311 5.73674 13.5296C6.31973 13.7482 6.99016 13.8575 7.74804 13.8575Z" fill="#131313"/>
</svg>
